<svg id="visual" viewBox="0 0 960 540" width="960" height="540" xmlns="http://www.w3.org/2000/svg" xmlns:xlink="http://www.w3.org/1999/xlink" version="1.1"><path d="M0 82L8.5 105.3C17 128.7 34 175.3 50.8 189.7C67.7 204 84.3 186 101.2 165.3C118 144.7 135 121.3 151.8 107.8C168.7 94.3 185.3 90.7 202.2 97C219 103.3 236 119.7 252.8 118C269.7 116.3 286.3 96.7 303.2 84C320 71.3 337 65.7 353.8 80.8C370.7 96 387.3 132 404.2 150C421 168 438 168 454.8 157.3C471.7 146.7 488.3 125.3 505.2 112.8C522 100.3 539 96.7 555.8 108.3C572.7 120 589.3 147 606.2 159.5C623 172 640 170 656.8 159.2C673.7 148.3 690.3 128.7 707.2 111.7C724 94.7 741 80.3 757.8 77.7C774.7 75 791.3 84 808.2 93C825 102 842 111 858.8 106.5C875.7 102 892.3 84 909.2 90.3C926 96.7 943 127.3 951.5 142.7L960 158L960 0L951.5 0C943 0 926 0 909.2 0C892.3 0 875.7 0 858.8 0C842 0 825 0 808.2 0C791.3 0 774.7 0 757.8 0C741 0 724 0 707.2 0C690.3 0 673.7 0 656.8 0C640 0 623 0 606.2 0C589.3 0 572.7 0 555.8 0C539 0 522 0 505.2 0C488.3 0 471.7 0 454.8 0C438 0 421 0 404.2 0C387.3 0 370.7 0 353.8 0C337 0 320 0 303.2 0C286.3 0 269.7 0 252.8 0C236 0 219 0 202.2 0C185.3 0 168.7 0 151.8 0C135 0 118 0 101.2 0C84.3 0 67.7 0 50.8 0C34 0 17 0 8.5 0L0 0Z" fill="#bea7e5"></path><path d="M0 109L8.5 130.7C17 152.3 34 195.7 50.8 209.2C67.7 222.7 84.3 206.3 101.2 186.5C118 166.7 135 143.3 151.8 129C168.7 114.7 185.3 109.3 202.2 115.7C219 122 236 140 252.8 142.7C269.7 145.3 286.3 132.7 303.2 119.2C320 105.7 337 91.3 353.8 104.8C370.7 118.3 387.3 159.7 404.2 182.2C421 204.7 438 208.3 454.8 197.5C471.7 186.7 488.3 161.3 505.2 144.2C522 127 539 118 555.8 131.5C572.7 145 589.3 181 606.2 193.7C623 206.3 640 195.7 656.8 180.3C673.7 165 690.3 145 707.2 127.8C724 110.7 741 96.3 757.8 93.7C774.7 91 791.3 100 808.2 112.7C825 125.3 842 141.7 858.8 141.7C875.7 141.7 892.3 125.3 909.2 129.8C926 134.3 943 159.7 951.5 172.3L960 185L960 156L951.5 140.7C943 125.3 926 94.7 909.2 88.3C892.3 82 875.7 100 858.8 104.5C842 109 825 100 808.2 91C791.3 82 774.7 73 757.8 75.7C741 78.3 724 92.7 707.2 109.7C690.3 126.7 673.7 146.3 656.8 157.2C640 168 623 170 606.2 157.5C589.3 145 572.7 118 555.8 106.3C539 94.7 522 98.3 505.2 110.8C488.3 123.3 471.7 144.7 454.8 155.3C438 166 421 166 404.2 148C387.3 130 370.7 94 353.8 78.8C337 63.7 320 69.3 303.2 82C286.3 94.7 269.7 114.3 252.8 116C236 117.7 219 101.3 202.2 95C185.3 88.7 168.7 92.3 151.8 105.8C135 119.3 118 142.7 101.2 163.3C84.3 184 67.7 202 50.8 187.7C34 173.3 17 126.7 8.5 103.3L0 80Z" fill="#a58fcb"></path><path d="M0 244L8.5 256.7C17 269.3 34 294.7 50.8 298.3C67.7 302 84.3 284 101.2 282.2C118 280.3 135 294.7 151.8 293.7C168.7 292.7 185.3 276.3 202.2 261.8C219 247.3 236 234.7 252.8 234.7C269.7 234.7 286.3 247.3 303.2 250.2C320 253 337 246 353.8 254.2C370.7 262.3 387.3 285.7 404.2 300C421 314.3 438 319.7 454.8 312.5C471.7 305.3 488.3 285.7 505.2 279.3C522 273 539 280 555.8 284.5C572.7 289 589.3 291 606.2 290.2C623 289.3 640 285.7 656.8 271.2C673.7 256.7 690.3 231.3 707.2 225C724 218.7 741 231.3 757.8 250.3C774.7 269.3 791.3 294.7 808.2 298.3C825 302 842 284 858.8 275C875.7 266 892.3 266 909.2 262.3C926 258.7 943 251.3 951.5 247.7L960 244L960 183L951.5 170.3C943 157.7 926 132.3 909.2 127.8C892.3 123.3 875.7 139.7 858.8 139.7C842 139.7 825 123.3 808.2 110.7C791.3 98 774.7 89 757.8 91.7C741 94.3 724 108.7 707.2 125.8C690.3 143 673.7 163 656.8 178.3C640 193.7 623 204.3 606.2 191.7C589.3 179 572.7 143 555.8 129.5C539 116 522 125 505.2 142.2C488.3 159.3 471.7 184.7 454.8 195.5C438 206.3 421 202.7 404.2 180.2C387.3 157.7 370.7 116.3 353.8 102.8C337 89.3 320 103.7 303.2 117.2C286.3 130.7 269.7 143.3 252.8 140.7C236 138 219 120 202.2 113.7C185.3 107.3 168.7 112.7 151.8 127C135 141.3 118 164.7 101.2 184.5C84.3 204.3 67.7 220.7 50.8 207.2C34 193.7 17 150.3 8.5 128.7L0 107Z" fill="#8d77b2"></path><path d="M0 287L8.5 295.2C17 303.3 34 319.7 50.8 319.7C67.7 319.7 84.3 303.3 101.2 305.2C118 307 135 327 151.8 328.8C168.7 330.7 185.3 314.3 202.2 301.7C219 289 236 280 252.8 278.2C269.7 276.3 286.3 281.7 303.2 281.7C320 281.7 337 276.3 353.8 283.5C370.7 290.7 387.3 310.3 404.2 322C421 333.7 438 337.3 454.8 331.2C471.7 325 488.3 309 505.2 307.2C522 305.3 539 317.7 555.8 323.8C572.7 330 589.3 330 606.2 328.3C623 326.7 640 323.3 656.8 309.8C673.7 296.3 690.3 272.7 707.2 268.2C724 263.7 741 278.3 757.8 292.8C774.7 307.3 791.3 321.7 808.2 321.7C825 321.7 842 307.3 858.8 301C875.7 294.7 892.3 296.3 909.2 291.8C926 287.3 943 276.7 951.5 271.3L960 266L960 242L951.5 245.7C943 249.3 926 256.7 909.2 260.3C892.3 264 875.7 264 858.8 273C842 282 825 300 808.2 296.3C791.3 292.7 774.7 267.3 757.8 248.3C741 229.3 724 216.7 707.2 223C690.3 229.3 673.7 254.7 656.8 269.2C640 283.7 623 287.3 606.2 288.2C589.3 289 572.7 287 555.8 282.5C539 278 522 271 505.2 277.3C488.3 283.7 471.7 303.3 454.8 310.5C438 317.7 421 312.3 404.2 298C387.3 283.7 370.7 260.3 353.8 252.2C337 244 320 251 303.2 248.2C286.3 245.3 269.7 232.7 252.8 232.7C236 232.7 219 245.3 202.2 259.8C185.3 274.3 168.7 290.7 151.8 291.7C135 292.7 118 278.3 101.2 280.2C84.3 282 67.7 300 50.8 296.3C34 292.7 17 267.3 8.5 254.7L0 242Z" fill="#75619a"></path><path d="M0 347L8.5 354.2C17 361.3 34 375.7 50.8 374.7C67.7 373.7 84.3 357.3 101.2 360.8C118 364.3 135 387.7 151.8 390.3C168.7 393 185.3 375 202.2 362.5C219 350 236 343 252.8 342.2C269.7 341.3 286.3 346.7 303.2 343C320 339.3 337 326.7 353.8 328.5C370.7 330.3 387.3 346.7 404.2 355.7C421 364.7 438 366.3 454.8 363.7C471.7 361 488.3 354 505.2 360.3C522 366.7 539 386.3 555.8 387.2C572.7 388 589.3 370 606.2 363.7C623 357.3 640 362.7 656.8 357.3C673.7 352 690.3 336 707.2 331.5C724 327 741 334 757.8 343.8C774.7 353.7 791.3 366.3 808.2 363.7C825 361 842 343 858.8 334C875.7 325 892.3 325 909.2 321.3C926 317.7 943 310.3 951.5 306.7L960 303L960 264L951.5 269.3C943 274.7 926 285.3 909.2 289.8C892.3 294.3 875.7 292.7 858.8 299C842 305.3 825 319.7 808.2 319.7C791.3 319.7 774.7 305.3 757.8 290.8C741 276.3 724 261.7 707.2 266.2C690.3 270.7 673.7 294.3 656.8 307.8C640 321.3 623 324.7 606.2 326.3C589.3 328 572.7 328 555.8 321.8C539 315.7 522 303.3 505.2 305.2C488.3 307 471.7 323 454.8 329.2C438 335.3 421 331.7 404.2 320C387.3 308.3 370.7 288.7 353.8 281.5C337 274.3 320 279.7 303.2 279.7C286.3 279.7 269.7 274.3 252.8 276.2C236 278 219 287 202.2 299.7C185.3 312.3 168.7 328.7 151.8 326.8C135 325 118 305 101.2 303.2C84.3 301.3 67.7 317.7 50.8 317.7C34 317.7 17 301.3 8.5 293.2L0 285Z" fill="#5e4b82"></path><path d="M0 395L8.5 404C17 413 34 431 50.8 436.5C67.7 442 84.3 435 101.2 435C118 435 135 442 151.8 437.5C168.7 433 185.3 417 202.2 410.7C219 404.3 236 407.7 252.8 409.3C269.7 411 286.3 411 303.2 411C320 411 337 411 353.8 412C370.7 413 387.3 415 404.2 416.8C421 418.7 438 420.3 454.8 417.7C471.7 415 488.3 408 505.2 411.7C522 415.3 539 429.7 555.8 429.7C572.7 429.7 589.3 415.3 606.2 410.8C623 406.3 640 411.7 656.8 409.8C673.7 408 690.3 399 707.2 399.8C724 400.7 741 411.3 757.8 416.7C774.7 422 791.3 422 808.2 423.8C825 425.7 842 429.3 858.8 429.3C875.7 429.3 892.3 425.7 909.2 421.2C926 416.7 943 411.3 951.5 408.7L960 406L960 301L951.5 304.7C943 308.3 926 315.7 909.2 319.3C892.3 323 875.7 323 858.8 332C842 341 825 359 808.2 361.7C791.3 364.3 774.7 351.7 757.8 341.8C741 332 724 325 707.2 329.5C690.3 334 673.7 350 656.8 355.3C640 360.7 623 355.3 606.2 361.7C589.3 368 572.7 386 555.8 385.2C539 384.3 522 364.7 505.2 358.3C488.3 352 471.7 359 454.8 361.7C438 364.3 421 362.7 404.2 353.7C387.3 344.7 370.7 328.3 353.8 326.5C337 324.7 320 337.3 303.2 341C286.3 344.7 269.7 339.3 252.8 340.2C236 341 219 348 202.2 360.5C185.3 373 168.7 391 151.8 388.3C135 385.7 118 362.3 101.2 358.8C84.3 355.3 67.7 371.7 50.8 372.7C34 373.7 17 359.3 8.5 352.2L0 345Z" fill="#48366b"></path><path d="M0 444L8.5 450.3C17 456.7 34 469.3 50.8 469.3C67.7 469.3 84.3 456.7 101.2 459.3C118 462 135 480 151.8 480C168.7 480 185.3 462 202.2 451.2C219 440.3 236 436.7 252.8 436.7C269.7 436.7 286.3 440.3 303.2 442.2C320 444 337 444 353.8 444C370.7 444 387.3 444 404.2 444.8C421 445.7 438 447.3 454.8 446.3C471.7 445.3 488.3 441.7 505.2 443.5C522 445.3 539 452.7 555.8 450C572.7 447.3 589.3 434.7 606.2 432C623 429.3 640 436.7 656.8 440.3C673.7 444 690.3 444 707.2 444.8C724 445.7 741 447.3 757.8 449.2C774.7 451 791.3 453 808.2 456.7C825 460.3 842 465.7 858.8 468.3C875.7 471 892.3 471 909.2 468.3C926 465.7 943 460.3 951.5 457.7L960 455L960 404L951.5 406.7C943 409.3 926 414.7 909.2 419.2C892.3 423.7 875.7 427.3 858.8 427.3C842 427.3 825 423.7 808.2 421.8C791.3 420 774.7 420 757.8 414.7C741 409.3 724 398.7 707.2 397.8C690.3 397 673.7 406 656.8 407.8C640 409.7 623 404.3 606.2 408.8C589.3 413.3 572.7 427.7 555.8 427.7C539 427.7 522 413.3 505.2 409.7C488.3 406 471.7 413 454.8 415.7C438 418.3 421 416.7 404.2 414.8C387.3 413 370.7 411 353.8 410C337 409 320 409 303.2 409C286.3 409 269.7 409 252.8 407.3C236 405.7 219 402.3 202.2 408.7C185.3 415 168.7 431 151.8 435.5C135 440 118 433 101.2 433C84.3 433 67.7 440 50.8 434.5C34 429 17 411 8.5 402L0 393Z" fill="#322355"></path><path d="M0 503L8.5 504.8C17 506.7 34 510.3 50.8 512.2C67.7 514 84.3 514 101.2 514.8C118 515.7 135 517.3 151.8 514.7C168.7 512 185.3 505 202.2 500.5C219 496 236 494 252.8 494C269.7 494 286.3 496 303.2 496C320 496 337 494 353.8 491.3C370.7 488.7 387.3 485.3 404.2 486.3C421 487.3 438 492.7 454.8 495.3C471.7 498 488.3 498 505.2 495.3C522 492.7 539 487.3 555.8 485.5C572.7 483.7 589.3 485.3 606.2 490.7C623 496 640 505 656.8 506.8C673.7 508.7 690.3 503.3 707.2 501.5C724 499.7 741 501.3 757.8 501.3C774.7 501.3 791.3 499.7 808.2 497.8C825 496 842 494 858.8 493C875.7 492 892.3 492 909.2 494.8C926 497.7 943 503.3 951.5 506.2L960 509L960 453L951.5 455.7C943 458.3 926 463.7 909.2 466.3C892.3 469 875.7 469 858.8 466.3C842 463.7 825 458.3 808.2 454.7C791.3 451 774.7 449 757.8 447.2C741 445.3 724 443.7 707.2 442.8C690.3 442 673.7 442 656.8 438.3C640 434.7 623 427.3 606.2 430C589.3 432.7 572.7 445.3 555.8 448C539 450.7 522 443.3 505.2 441.5C488.3 439.7 471.7 443.3 454.8 444.3C438 445.3 421 443.7 404.2 442.8C387.3 442 370.7 442 353.8 442C337 442 320 442 303.2 440.2C286.3 438.3 269.7 434.7 252.8 434.7C236 434.7 219 438.3 202.2 449.2C185.3 460 168.7 478 151.8 478C135 478 118 460 101.2 457.3C84.3 454.7 67.7 467.3 50.8 467.3C34 467.3 17 454.7 8.5 448.3L0 442Z" fill="#1d1040"></path><path d="M0 541L8.5 541C17 541 34 541 50.8 541C67.7 541 84.3 541 101.2 541C118 541 135 541 151.8 541C168.7 541 185.3 541 202.2 541C219 541 236 541 252.8 541C269.7 541 286.3 541 303.2 541C320 541 337 541 353.8 541C370.7 541 387.3 541 404.2 541C421 541 438 541 454.8 541C471.7 541 488.3 541 505.2 541C522 541 539 541 555.8 541C572.7 541 589.3 541 606.2 541C623 541 640 541 656.8 541C673.7 541 690.3 541 707.2 541C724 541 741 541 757.8 541C774.7 541 791.3 541 808.2 541C825 541 842 541 858.8 541C875.7 541 892.3 541 909.2 541C926 541 943 541 951.5 541L960 541L960 507L951.5 504.2C943 501.3 926 495.7 909.2 492.8C892.3 490 875.7 490 858.8 491C842 492 825 494 808.2 495.8C791.3 497.7 774.7 499.3 757.8 499.3C741 499.3 724 497.7 707.2 499.5C690.3 501.3 673.7 506.7 656.8 504.8C640 503 623 494 606.2 488.7C589.3 483.3 572.7 481.7 555.8 483.5C539 485.3 522 490.7 505.2 493.3C488.3 496 471.7 496 454.8 493.3C438 490.7 421 485.3 404.2 484.3C387.3 483.3 370.7 486.7 353.8 489.3C337 492 320 494 303.2 494C286.3 494 269.7 492 252.8 492C236 492 219 494 202.2 498.5C185.3 503 168.7 510 151.8 512.7C135 515.3 118 513.7 101.2 512.8C84.3 512 67.7 512 50.8 510.2C34 508.3 17 504.7 8.5 502.8L0 501Z" fill="#000000"></path></svg>